<?xml version="1.0" encoding="UTF-8" standalone="no"?>
<!DOCTYPE svg PUBLIC "-//W3C//DTD SVG 1.1//EN"
 "http://www.w3.org/Graphics/SVG/1.1/DTD/svg11.dtd">
<!-- Generated by graphviz version 2.43.0 (0)
 -->
<!-- Title: combined Pages: 1 -->
<svg width="326pt" height="477pt"
 viewBox="0.00 0.00 325.60 476.60" xmlns="http://www.w3.org/2000/svg" xmlns:xlink="http://www.w3.org/1999/xlink">
<g id="graph0" class="graph" transform="scale(1 1) rotate(0) translate(28.8 447.8)">
<title>combined</title>
<polygon fill="#ffffff" stroke="transparent" points="-28.8,28.8 -28.8,-447.8 296.8,-447.8 296.8,28.8 -28.8,28.8"/>
<!-- node_cf2d74e90c934c408fb31e05bf2ebf52 -->
<g id="node1" class="node">
<title>node_cf2d74e90c934c408fb31e05bf2ebf52</title>
<path fill="#fef2f2" stroke="#ef4444" stroke-width="1.2" d="M256,-282C256,-282 150,-282 150,-282 144,-282 138,-276 138,-270 138,-270 138,-239 138,-239 138,-233 144,-227 150,-227 150,-227 256,-227 256,-227 262,-227 268,-233 268,-239 268,-239 268,-270 268,-270 268,-276 262,-282 256,-282"/>
<text text-anchor="middle" x="203" y="-263" font-family="Inter,Helvetica Neue,Arial,sans-serif" font-size="10.00" fill="#991b1b">cf2d..bf52</text>
<text text-anchor="middle" x="203" y="-252" font-family="Inter,Helvetica Neue,Arial,sans-serif" font-size="10.00" fill="#991b1b">✗ buggy &#160;0.417</text>
<text text-anchor="middle" x="203" y="-241" font-family="Inter,Helvetica Neue,Arial,sans-serif" font-size="10.00" fill="#991b1b">type&#45;check: ✓ (1 att.)</text>
</g>
<!-- node_64866ef875864dbaaceec38fbd05093e -->
<g id="node2" class="node">
<title>node_64866ef875864dbaaceec38fbd05093e</title>
<path fill="#fef2f2" stroke="#ef4444" stroke-width="1.2" d="M256,-191C256,-191 150,-191 150,-191 144,-191 138,-185 138,-179 138,-179 138,-148 138,-148 138,-142 144,-136 150,-136 150,-136 256,-136 256,-136 262,-136 268,-142 268,-148 268,-148 268,-179 268,-179 268,-185 262,-191 256,-191"/>
<text text-anchor="middle" x="203" y="-172" font-family="Inter,Helvetica Neue,Arial,sans-serif" font-size="10.00" fill="#991b1b">6486..093e</text>
<text text-anchor="middle" x="203" y="-161" font-family="Inter,Helvetica Neue,Arial,sans-serif" font-size="10.00" fill="#991b1b">✗ buggy &#160;0.417</text>
<text text-anchor="middle" x="203" y="-150" font-family="Inter,Helvetica Neue,Arial,sans-serif" font-size="10.00" fill="#991b1b">type&#45;check: ✓ (1 att.)</text>
</g>
<!-- node_cf2d74e90c934c408fb31e05bf2ebf52&#45;&gt;node_64866ef875864dbaaceec38fbd05093e -->
<g id="edge1" class="edge">
<title>node_cf2d74e90c934c408fb31e05bf2ebf52&#45;&gt;node_64866ef875864dbaaceec38fbd05093e</title>
<path fill="none" stroke="#ef4444" stroke-width="1.2" d="M203,-226.8C203,-217.56 203,-207.09 203,-197.41"/>
<polygon fill="#ef4444" stroke="#ef4444" stroke-width="1.2" points="203,-191.18 205.7,-197.18 203.1,-194.18 203.1,-197.18 203,-197.18 202.9,-197.18 202.9,-194.18 200.3,-197.18 203,-191.18 203,-191.18"/>
</g>
<!-- node_c9169e8dde8c4e9ea92abc6e4a44cf63 -->
<g id="node3" class="node">
<title>node_c9169e8dde8c4e9ea92abc6e4a44cf63</title>
<path fill="#fef2f2" stroke="#ef4444" stroke-width="1.2" d="M118,-419C118,-419 12,-419 12,-419 6,-419 0,-413 0,-407 0,-407 0,-376 0,-376 0,-370 6,-364 12,-364 12,-364 118,-364 118,-364 124,-364 130,-370 130,-376 130,-376 130,-407 130,-407 130,-413 124,-419 118,-419"/>
<text text-anchor="middle" x="65" y="-400" font-family="Inter,Helvetica Neue,Arial,sans-serif" font-size="10.00" fill="#991b1b">c916..cf63</text>
<text text-anchor="middle" x="65" y="-389" font-family="Inter,Helvetica Neue,Arial,sans-serif" font-size="10.00" fill="#991b1b">✗ buggy &#160;0.583</text>
<text text-anchor="middle" x="65" y="-378" font-family="Inter,Helvetica Neue,Arial,sans-serif" font-size="10.00" fill="#991b1b">type&#45;check: ✓ (1 att.)</text>
</g>
<!-- node_87df4111e6fe4287902bdc8ebdf92cc0 -->
<g id="node4" class="node">
<title>node_87df4111e6fe4287902bdc8ebdf92cc0</title>
<path fill="#fef2f2" stroke="#ef4444" stroke-width="1.2" d="M118,-328C118,-328 12,-328 12,-328 6,-328 0,-322 0,-316 0,-316 0,-285 0,-285 0,-279 6,-273 12,-273 12,-273 118,-273 118,-273 124,-273 130,-279 130,-285 130,-285 130,-316 130,-316 130,-322 124,-328 118,-328"/>
<text text-anchor="middle" x="65" y="-309" font-family="Inter,Helvetica Neue,Arial,sans-serif" font-size="10.00" fill="#991b1b">87df..2cc0</text>
<text text-anchor="middle" x="65" y="-298" font-family="Inter,Helvetica Neue,Arial,sans-serif" font-size="10.00" fill="#991b1b">✗ buggy &#160;0.500</text>
<text text-anchor="middle" x="65" y="-287" font-family="Inter,Helvetica Neue,Arial,sans-serif" font-size="10.00" fill="#991b1b">type&#45;check: ✓ (1 att.)</text>
</g>
<!-- node_c9169e8dde8c4e9ea92abc6e4a44cf63&#45;&gt;node_87df4111e6fe4287902bdc8ebdf92cc0 -->
<g id="edge2" class="edge">
<title>node_c9169e8dde8c4e9ea92abc6e4a44cf63&#45;&gt;node_87df4111e6fe4287902bdc8ebdf92cc0</title>
<path fill="none" stroke="#ef4444" stroke-width="1.2" d="M65,-363.8C65,-354.56 65,-344.09 65,-334.41"/>
<polygon fill="#ef4444" stroke="#ef4444" stroke-width="1.2" points="65,-328.18 67.7,-334.18 65.1,-331.18 65.1,-334.18 65,-334.18 64.9,-334.18 64.9,-331.18 62.3,-334.18 65,-328.18 65,-328.18"/>
</g>
<!-- node_6147f305778843a28cca98d33ec4202a -->
<g id="node5" class="node">
<title>node_6147f305778843a28cca98d33ec4202a</title>
<path fill="#f0fdf4" stroke="#22c55e" stroke-width="1.2" d="M118,-237C118,-237 12,-237 12,-237 6,-237 0,-231 0,-225 0,-225 0,-194 0,-194 0,-188 6,-182 12,-182 12,-182 118,-182 118,-182 124,-182 130,-188 130,-194 130,-194 130,-225 130,-225 130,-231 124,-237 118,-237"/>
<text text-anchor="middle" x="65" y="-218" font-family="Inter,Helvetica Neue,Arial,sans-serif" font-size="10.00" fill="#166534">6147..202a</text>
<text text-anchor="middle" x="65" y="-207" font-family="Inter,Helvetica Neue,Arial,sans-serif" font-size="10.00" fill="#166534">score: 0.833</text>
<text text-anchor="middle" x="65" y="-196" font-family="Inter,Helvetica Neue,Arial,sans-serif" font-size="10.00" fill="#166534">type&#45;check: ✓ (1 att.)</text>
</g>
<!-- node_87df4111e6fe4287902bdc8ebdf92cc0&#45;&gt;node_6147f305778843a28cca98d33ec4202a -->
<g id="edge3" class="edge">
<title>node_87df4111e6fe4287902bdc8ebdf92cc0&#45;&gt;node_6147f305778843a28cca98d33ec4202a</title>
<path fill="none" stroke="#22c55e" stroke-width="1.2" d="M65,-272.8C65,-263.56 65,-253.09 65,-243.41"/>
<polygon fill="#22c55e" stroke="#22c55e" stroke-width="1.2" points="65,-237.18 67.7,-243.18 65.1,-240.18 65.1,-243.18 65,-243.18 64.9,-243.18 64.9,-240.18 62.3,-243.18 65,-237.18 65,-237.18"/>
</g>
<!-- node_ef884d97255e4aa5b19b39f11c6bf5d9 -->
<g id="node6" class="node">
<title>node_ef884d97255e4aa5b19b39f11c6bf5d9</title>
<path fill="#f0fdf4" stroke="#22c55e" stroke-width="1.2" d="M118,-146C118,-146 12,-146 12,-146 6,-146 0,-140 0,-134 0,-134 0,-103 0,-103 0,-97 6,-91 12,-91 12,-91 118,-91 118,-91 124,-91 130,-97 130,-103 130,-103 130,-134 130,-134 130,-140 124,-146 118,-146"/>
<text text-anchor="middle" x="65" y="-127" font-family="Inter,Helvetica Neue,Arial,sans-serif" font-size="10.00" fill="#166534">ef88..f5d9</text>
<text text-anchor="middle" x="65" y="-116" font-family="Inter,Helvetica Neue,Arial,sans-serif" font-size="10.00" fill="#166534">score: 0.917</text>
<text text-anchor="middle" x="65" y="-105" font-family="Inter,Helvetica Neue,Arial,sans-serif" font-size="10.00" fill="#166534">type&#45;check: ✓ (1 att.)</text>
</g>
<!-- node_6147f305778843a28cca98d33ec4202a&#45;&gt;node_ef884d97255e4aa5b19b39f11c6bf5d9 -->
<g id="edge4" class="edge">
<title>node_6147f305778843a28cca98d33ec4202a&#45;&gt;node_ef884d97255e4aa5b19b39f11c6bf5d9</title>
<path fill="none" stroke="#22c55e" stroke-width="1.2" d="M65,-181.8C65,-172.56 65,-162.09 65,-152.41"/>
<polygon fill="#22c55e" stroke="#22c55e" stroke-width="1.2" points="65,-146.18 67.7,-152.18 65.1,-149.18 65.1,-152.18 65,-152.18 64.9,-152.18 64.9,-149.18 62.3,-152.18 65,-146.18 65,-146.18"/>
</g>
<!-- node_d921808b905a4d81aa187b4b68447c09 -->
<g id="node7" class="node">
<title>node_d921808b905a4d81aa187b4b68447c09</title>
<path fill="#fef2f2" stroke="#ef4444" stroke-width="1.2" d="M118,-55C118,-55 12,-55 12,-55 6,-55 0,-49 0,-43 0,-43 0,-12 0,-12 0,-6 6,0 12,0 12,0 118,0 118,0 124,0 130,-6 130,-12 130,-12 130,-43 130,-43 130,-49 124,-55 118,-55"/>
<text text-anchor="middle" x="65" y="-36" font-family="Inter,Helvetica Neue,Arial,sans-serif" font-size="10.00" fill="#991b1b">d921..7c09</text>
<text text-anchor="middle" x="65" y="-25" font-family="Inter,Helvetica Neue,Arial,sans-serif" font-size="10.00" fill="#991b1b">✗ buggy &#160;0.000</text>
<text text-anchor="middle" x="65" y="-14" font-family="Inter,Helvetica Neue,Arial,sans-serif" font-size="10.00" fill="#991b1b">type&#45;check: ✓ (2 att.)</text>
</g>
<!-- node_ef884d97255e4aa5b19b39f11c6bf5d9&#45;&gt;node_d921808b905a4d81aa187b4b68447c09 -->
<g id="edge5" class="edge">
<title>node_ef884d97255e4aa5b19b39f11c6bf5d9&#45;&gt;node_d921808b905a4d81aa187b4b68447c09</title>
<path fill="none" stroke="#ef4444" stroke-width="1.2" d="M65,-90.8C65,-81.56 65,-71.09 65,-61.41"/>
<polygon fill="#ef4444" stroke="#ef4444" stroke-width="1.2" points="65,-55.18 67.7,-61.18 65.1,-58.18 65.1,-61.18 65,-61.18 64.9,-61.18 64.9,-58.18 62.3,-61.18 65,-55.18 65,-55.18"/>
</g>
</g>
</svg>
